{
	"asset": {
		"generator": "Blocks",
		"version": "1.0.4",
		"copyright": "Unknown"
	},
	"buffers": {
		"model": {
			"byteLength": 857544,
			"type": "arraybuffer",
			"uri": "model.bin"
		}
	},
	"accessors": {
		"accessor_position_m0-PolyGlass24_-141504": {
			"bufferView": "vec3BufferView",
			"byteOffset": 0,
			"byteStride": 12,
			"componentType": 5126,
			"count": 2016,
			"max": [ 0.3600074, 2.29808, -0.3027419 ],
			"min": [ -0.3577944, 1.762456, -0.7457649 ],
			"type": "VEC3"
		 },
		"accessor_normal_m0-PolyGlass24_-141504": {
			"bufferView": "vec3BufferView",
			"byteOffset": 24192,
			"byteStride": 12,
			"componentType": 5126,
			"count": 2016,
			"max": [ 0.9921228, 1, 0.9926696 ],
			"min": [ -0.9921228, -1, -0.9926698 ],
			"type": "VEC3"
		 },
		"accessor_color_m0-PolyGlass24_-141504": {
			"bufferView": "vec4BufferView",
			"byteOffset": 0,
			"byteStride": 16,
			"componentType": 5126,
			"count": 2016,
			"max": [ 0.8392157, 0.8392157, 0.8392157, 0.2509804 ],
			"min": [ 0.8392157, 0.8392157, 0.8392157, 0.2509804 ],
			"type": "VEC4"
		 },
		"accessor_indices_0_m0-PolyGlass24_-141504": {
			"bufferView": "ushortBufferView",
			"byteOffset": 0,
			"byteStride": 0,
			"componentType": 5123,
			"count": 2976,
			"max": [ 2015 ],
			"min": [ 0 ],
			"type": "SCALAR"
		 },
		"accessor_position_m1-PolyPaper8_-185938": {
			"bufferView": "vec3BufferView",
			"byteOffset": 48384,
			"byteStride": 12,
			"componentType": 5126,
			"count": 9996,
			"max": [ 0.3399995, 2.189594, -0.1899911 ],
			"min": [ -0.7600062, 1.290014, -0.7300056 ],
			"type": "VEC3"
		 },
		"accessor_normal_m1-PolyPaper8_-185938": {
			"bufferView": "vec3BufferView",
			"byteOffset": 168336,
			"byteStride": 12,
			"componentType": 5126,
			"count": 9996,
			"max": [ 1, 1, 1 ],
			"min": [ -1, -1, -1 ],
			"type": "VEC3"
		 },
		"accessor_color_m1-PolyPaper8_-185938": {
			"bufferView": "vec4BufferView",
			"byteOffset": 32256,
			"byteStride": 16,
			"componentType": 5126,
			"count": 9996,
			"max": [ 1, 1, 1, 1 ],
			"min": [ 0.1019608, 0.1019608, 0.1019608, 1 ],
			"type": "VEC4"
		 },
		"accessor_indices_0_m1-PolyPaper8_-185938": {
			"bufferView": "ushortBufferView",
			"byteOffset": 5952,
			"byteStride": 0,
			"componentType": 5123,
			"count": 15564,
			"max": [ 9995 ],
			"min": [ 0 ],
			"type": "SCALAR"
		 },
		"accessor_position_m2-PolyPaper16_-185940": {
			"bufferView": "vec3BufferView",
			"byteOffset": 288288,
			"byteStride": 12,
			"componentType": 5126,
			"count": 7908,
			"max": [ 0.3340774, 2.215484, -0.3099733 ],
			"min": [ -0.7400216, 1.73794, -0.7200399 ],
			"type": "VEC3"
		 },
		"accessor_normal_m2-PolyPaper16_-185940": {
			"bufferView": "vec3BufferView",
			"byteOffset": 383184,
			"byteStride": 12,
			"componentType": 5126,
			"count": 7908,
			"max": [ 0.9997575, 1, 0.9999613 ],
			"min": [ -0.9997575, -1, -0.9999613 ],
			"type": "VEC3"
		 },
		"accessor_color_m2-PolyPaper16_-185940": {
			"bufferView": "vec4BufferView",
			"byteOffset": 192192,
			"byteStride": 16,
			"componentType": 5126,
			"count": 7908,
			"max": [ 1, 0.9215686, 0.6117647, 1 ],
			"min": [ 0.1019608, 0.1019608, 0.1019608, 1 ],
			"type": "VEC4"
		 },
		"accessor_indices_0_m2-PolyPaper16_-185940": {
			"bufferView": "ushortBufferView",
			"byteOffset": 37080,
			"byteStride": 0,
			"componentType": 5123,
			"count": 11832,
			"max": [ 7907 ],
			"min": [ 0 ],
			"type": "SCALAR"
		 }
	},
	"bufferViews": {
		"ushortBufferView": {
			"buffer": "model",
			"byteLength": 60744,
			"byteOffset": 0,
			"target": 34963
		},
		"vec3BufferView": {
			"buffer": "model",
			"byteLength": 478080,
			"byteOffset": 60744,
			"target": 34962
		},
		"vec4BufferView": {
			"buffer": "model",
			"byteLength": 318720,
			"byteOffset": 538824,
			"target": 34962
		}
	},
	"meshes": {
		"mesh_m0-PolyGlass24_-141504": {
			"name": "mesh_m0-PolyGlass24_-141504",
			"primitives": [
				{
					"attributes": {
						"POSITION": "accessor_position_m0-PolyGlass24_-141504",
						"NORMAL": "accessor_normal_m0-PolyGlass24_-141504",
						"COLOR": "accessor_color_m0-PolyGlass24_-141504"
					},
					"indices": "accessor_indices_0_m0-PolyGlass24_-141504",
					"material": "material_mat24",
					"mode": 4
				}
			]
		},
		"mesh_m1-PolyPaper8_-185938": {
			"name": "mesh_m1-PolyPaper8_-185938",
			"primitives": [
				{
					"attributes": {
						"POSITION": "accessor_position_m1-PolyPaper8_-185938",
						"NORMAL": "accessor_normal_m1-PolyPaper8_-185938",
						"COLOR": "accessor_color_m1-PolyPaper8_-185938"
					},
					"indices": "accessor_indices_0_m1-PolyPaper8_-185938",
					"material": "material_mat8",
					"mode": 4
				}
			]
		},
		"mesh_m2-PolyPaper16_-185940": {
			"name": "mesh_m2-PolyPaper16_-185940",
			"primitives": [
				{
					"attributes": {
						"POSITION": "accessor_position_m2-PolyPaper16_-185940",
						"NORMAL": "accessor_normal_m2-PolyPaper16_-185940",
						"COLOR": "accessor_color_m2-PolyPaper16_-185940"
					},
					"indices": "accessor_indices_0_m2-PolyPaper16_-185940",
					"material": "material_mat16",
					"mode": 4
				}
			]
		}
	},
	"shaders": {
		"vertex_mat24": {
			"type": 35633,
			"uri": "https://vr.google.com/shaders/w/glassVS.glsl"
		},
		"fragment_mat24": {
			"type": 35632,
			"uri": "https://vr.google.com/shaders/w/glassFS.glsl"
		},
		"vertex_mat8": {
			"type": 35633,
			"uri": "https://vr.google.com/shaders/w/vs.glsl"
		},
		"fragment_mat8": {
			"type": 35632,
			"uri": "https://vr.google.com/shaders/w/fs.glsl"
		},
		"vertex_mat16": {
			"type": 35633,
			"uri": "https://vr.google.com/shaders/w/vs.glsl"
		},
		"fragment_mat16": {
			"type": 35632,
			"uri": "https://vr.google.com/shaders/w/fs.glsl"
		}
	},
	"programs": {
		"program_mat24": {
			"attributes": [
				"a_position",
				"a_normal",
				"a_color"				
			],
			"vertexShader": "vertex_mat24",
			"fragmentShader": "fragment_mat24"
		},
		"program_mat8": {
			"attributes": [
				"a_position",
				"a_normal",
				"a_color"				
			],
			"vertexShader": "vertex_mat8",
			"fragmentShader": "fragment_mat8"
		},
		"program_mat16": {
			"attributes": [
				"a_position",
				"a_normal",
				"a_color"				
			],
			"vertexShader": "vertex_mat16",
			"fragmentShader": "fragment_mat16"
		}
	},
	"techniques": {
		"technique_mat24": {
			"program": "program_mat24",
			"extras": {"gvrss" : "https://vr.google.com/shaders/w/gvrss/glass.json"},
			"parameters": {
				"position": {
					"type": 35665,
					"semantic": "POSITION"
				},
				"normal": {
					"type": 35665,
					"semantic": "NORMAL"
				},
				"color": {
					"type": 35666,
					"semantic": "COLOR"
				},
				"modelViewMatrix": {
					"type": 35676,
					"semantic": "MODELVIEW"
				},
				"projectionMatrix": {
					"type": 35676,
					"semantic": "PROJECTION"
				},
				"normalMatrix": {
					"type": 35675,
					"semantic": "MODELVIEWINVERSETRANSPOSE"
				},
				"color": {
					"type": 35666
				},
				"roughness": {
					"type": 5126
				},
				"metallic": {
					"type": 5126
				},
				"light0Pos": {
					"type": 35666
				},
				"light0Color": {
					"type": 35666
				},
				"light1Pos": {
					"type": 35666
				},
				"light1Color": {
					"type": 35666
				}				
			},
			"attributes": {
				"a_position": "position",
				"a_normal": "normal",
				"a_color": "color"				
			},
			"uniforms": {
				"u_modelViewMatrix": "modelViewMatrix",
				"u_projectionMatrix": "projectionMatrix",
				"u_normalMatrix": "normalMatrix",
				"u_color": "color",
				"u_roughness": "roughness",
				"u_metallic": "metallic",
				"u_light0Pos": "light0Pos",
				"u_light0Color": "light0Color",
				"u_light1Pos": "light1Pos",
				"u_light1Color": "light1Color"				
			},
			"states": {
				"enable": [
					2929,
					3042
				],
				"functions": {
					"blendFuncSeparate": [775, 774, 773, 772],
					"depthMask": [true]
				}
			}
		},
		"technique_mat8": {
			"program": "program_mat8",
			"extras": {"gvrss" : "https://vr.google.com/shaders/w/gvrss/paper.json"},
			"parameters": {
				"position": {
					"type": 35665,
					"semantic": "POSITION"
				},
				"normal": {
					"type": 35665,
					"semantic": "NORMAL"
				},
				"color": {
					"type": 35666,
					"semantic": "COLOR"
				},
				"modelViewMatrix": {
					"type": 35676,
					"semantic": "MODELVIEW"
				},
				"projectionMatrix": {
					"type": 35676,
					"semantic": "PROJECTION"
				},
				"normalMatrix": {
					"type": 35675,
					"semantic": "MODELVIEWINVERSETRANSPOSE"
				},
				"color": {
					"type": 35666
				},
				"roughness": {
					"type": 5126
				},
				"metallic": {
					"type": 5126
				},
				"light0Pos": {
					"type": 35666
				},
				"light0Color": {
					"type": 35666
				},
				"light1Pos": {
					"type": 35666
				},
				"light1Color": {
					"type": 35666
				}				
			},
			"attributes": {
				"a_position": "position",
				"a_normal": "normal",
				"a_color": "color"				
			},
			"uniforms": {
				"u_modelViewMatrix": "modelViewMatrix",
				"u_projectionMatrix": "projectionMatrix",
				"u_normalMatrix": "normalMatrix",
				"u_color": "color",
				"u_roughness": "roughness",
				"u_metallic": "metallic",
				"u_light0Pos": "light0Pos",
				"u_light0Color": "light0Color",
				"u_light1Pos": "light1Pos",
				"u_light1Color": "light1Color"				
			},
			"states": {
				"enable": [
					2929,
					2884
				],
				"functions": {
					"cullFace": [1029]
				}
			}
		},
		"technique_mat16": {
			"program": "program_mat16",
			"extras": {"gvrss" : "https://vr.google.com/shaders/w/gvrss/paper.json"},
			"parameters": {
				"position": {
					"type": 35665,
					"semantic": "POSITION"
				},
				"normal": {
					"type": 35665,
					"semantic": "NORMAL"
				},
				"color": {
					"type": 35666,
					"semantic": "COLOR"
				},
				"modelViewMatrix": {
					"type": 35676,
					"semantic": "MODELVIEW"
				},
				"projectionMatrix": {
					"type": 35676,
					"semantic": "PROJECTION"
				},
				"normalMatrix": {
					"type": 35675,
					"semantic": "MODELVIEWINVERSETRANSPOSE"
				},
				"color": {
					"type": 35666
				},
				"roughness": {
					"type": 5126
				},
				"metallic": {
					"type": 5126
				},
				"light0Pos": {
					"type": 35666
				},
				"light0Color": {
					"type": 35666
				},
				"light1Pos": {
					"type": 35666
				},
				"light1Color": {
					"type": 35666
				}				
			},
			"attributes": {
				"a_position": "position",
				"a_normal": "normal",
				"a_color": "color"				
			},
			"uniforms": {
				"u_modelViewMatrix": "modelViewMatrix",
				"u_projectionMatrix": "projectionMatrix",
				"u_normalMatrix": "normalMatrix",
				"u_color": "color",
				"u_roughness": "roughness",
				"u_metallic": "metallic",
				"u_light0Pos": "light0Pos",
				"u_light0Color": "light0Color",
				"u_light1Pos": "light1Pos",
				"u_light1Color": "light1Color"				
			},
			"states": {
				"enable": [
					2929,
					2884
				],
				"functions": {
					"cullFace": [1029]
				}
			}
		}
	},
	"materials": {
		"material_mat24": {
			"technique": "technique_mat24",
			"values": {
				"color": [0.8392157, 0.8392157, 0.8392157, 0.2509804],
				"roughness": 0,
				"metallic": 0,
				"light0Pos": [-0.02, 4.11, -0.54, 0],
				"light0Color": [0.8, 0.8, 0.8, 0],
				"light1Pos": [0.02, -4.11, 0.54, 0],
				"light1Color": [0.64, 0.5647059, 0.5647059, 0]				
			},
			"name": "material_mat24"
		},
		"material_mat8": {
			"technique": "technique_mat8",
			"values": {
				"color": [0.9568627, 0.2627451, 0.2117647, 1],
				"roughness": 0.72,
				"metallic": 0,
				"light0Pos": [-0.02, 4.11, -0.54, 0],
				"light0Color": [0.8, 0.8, 0.8, 0],
				"light1Pos": [0.02, -4.11, 0.54, 0],
				"light1Color": [0.64, 0.5647059, 0.5647059, 0]				
			},
			"name": "material_mat8"
		},
		"material_mat16": {
			"technique": "technique_mat16",
			"values": {
				"color": [0.4705882, 0.5647059, 0.6117647, 1],
				"roughness": 0.72,
				"metallic": 0,
				"light0Pos": [-0.02, 4.11, -0.54, 0],
				"light0Color": [0.8, 0.8, 0.8, 0],
				"light1Pos": [0.02, -4.11, 0.54, 0],
				"light1Color": [0.64, 0.5647059, 0.5647059, 0]				
			},
			"name": "material_mat16"
		}
	},
	"nodes": {
		"node_MeshObject-630405312-PolyGlass24": {
			"name": "node_MeshObject-630405312-PolyGlass24",
			"meshes": [
				"mesh_m0-PolyGlass24_-141504"
			],
			"matrix": [1, 0, 0, 0, 0, 1, 0, 0, 0, 0, 1, 0, 0, 0, 0, 1]
		},
		"node_MeshObject-1829841280-PolyPaper8": {
			"name": "node_MeshObject-1829841280-PolyPaper8",
			"meshes": [
				"mesh_m1-PolyPaper8_-185938"
			],
			"matrix": [1, 0, 0, 0, 0, 1, 0, 0, 0, 0, 1, 0, 0, 0, 0, 1]
		},
		"node_MeshObject-1311121216-PolyPaper16": {
			"name": "node_MeshObject-1311121216-PolyPaper16",
			"meshes": [
				"mesh_m2-PolyPaper16_-185940"
			],
			"matrix": [1, 0, 0, 0, 0, 1, 0, 0, 0, 0, 1, 0, 0, 0, 0, 1]
		}
	},
	"scene": "defaultScene",
	"scenes": {
		"defaultScene": {
			"nodes": [
				"node_MeshObject-630405312-PolyGlass24",
				"node_MeshObject-1829841280-PolyPaper8",
				"node_MeshObject-1311121216-PolyPaper16"
			],
			"extras": {

			}
		}
	}
}