{
	"asset": {
		"generator": "Blocks",
		"version": "1.0.3",
		"copyright": "Unknown"
	},
	"buffers": {
		"model": {
			"byteLength": 215736,
			"type": "arraybuffer",
			"uri": "model.bin"
		}
	},
	"accessors": {
		"accessor_position_m0-PolyGem25_-136056": {
			"bufferView": "vec3BufferView",
			"byteOffset": 0,
			"byteStride": 12,
			"componentType": 5126,
			"count": 966,
			"max": [ -1.045763, 2.201016, 0.2924827 ],
			"min": [ -1.49144, 0.02031782, -0.9735503 ],
			"type": "VEC3"
		 },
		"accessor_normal_m0-PolyGem25_-136056": {
			"bufferView": "vec3BufferView",
			"byteOffset": 11592,
			"byteStride": 12,
			"componentType": 5126,
			"count": 966,
			"max": [ 0.9946845, 0.9992838, 0.9987007 ],
			"min": [ -0.9946845, -0.9992838, -0.9986877 ],
			"type": "VEC3"
		 },
		"accessor_color_m0-PolyGem25_-136056": {
			"bufferView": "vec4BufferView",
			"byteOffset": 0,
			"byteStride": 16,
			"componentType": 5126,
			"count": 966,
			"max": [ 1, 1, 1, 1 ],
			"min": [ 1, 1, 1, 1 ],
			"type": "VEC4"
		 },
		"accessor_indices_0_m0-PolyGem25_-136056": {
			"bufferView": "ushortBufferView",
			"byteOffset": 0,
			"byteStride": 0,
			"componentType": 5123,
			"count": 1356,
			"max": [ 965 ],
			"min": [ 0 ],
			"type": "SCALAR"
		 },
		"accessor_position_m1-PolyPaper5_-135468": {
			"bufferView": "vec3BufferView",
			"byteOffset": 23184,
			"byteStride": 12,
			"componentType": 5126,
			"count": 4056,
			"max": [ -0.943697, 2.330973, 0.3323382 ],
			"min": [ -1.661628, -0.1963156, -1.084248 ],
			"type": "VEC3"
		 },
		"accessor_normal_m1-PolyPaper5_-135468": {
			"bufferView": "vec3BufferView",
			"byteOffset": 71856,
			"byteStride": 12,
			"componentType": 5126,
			"count": 4056,
			"max": [ 0.9968678, 0.9999937, 0.9987376 ],
			"min": [ -0.9985706, -0.9999937, -0.9996128 ],
			"type": "VEC3"
		 },
		"accessor_color_m1-PolyPaper5_-135468": {
			"bufferView": "vec4BufferView",
			"byteOffset": 15456,
			"byteStride": 16,
			"componentType": 5126,
			"count": 4056,
			"max": [ 1, 0.9215686, 0.8980392, 1 ],
			"min": [ 0.01176471, 0.1019608, 0, 1 ],
			"type": "VEC4"
		 },
		"accessor_indices_0_m1-PolyPaper5_-135468": {
			"bufferView": "ushortBufferView",
			"byteOffset": 2712,
			"byteStride": 0,
			"componentType": 5123,
			"count": 6072,
			"max": [ 4055 ],
			"min": [ 0 ],
			"type": "SCALAR"
		 }
	},
	"bufferViews": {
		"ushortBufferView": {
			"buffer": "model",
			"byteLength": 14856,
			"byteOffset": 0,
			"target": 34963
		},
		"vec3BufferView": {
			"buffer": "model",
			"byteLength": 120528,
			"byteOffset": 14856,
			"target": 34962
		},
		"vec4BufferView": {
			"buffer": "model",
			"byteLength": 80352,
			"byteOffset": 135384,
			"target": 34962
		}
	},
	"meshes": {
		"mesh_m0-PolyGem25_-136056": {
			"name": "mesh_m0-PolyGem25_-136056",
			"primitives": [
				{
					"attributes": {
						"POSITION": "accessor_position_m0-PolyGem25_-136056",
						"NORMAL": "accessor_normal_m0-PolyGem25_-136056",
						"COLOR": "accessor_color_m0-PolyGem25_-136056"
					},
					"indices": "accessor_indices_0_m0-PolyGem25_-136056",
					"material": "material_mat25",
					"mode": 4
				}
			]
		},
		"mesh_m1-PolyPaper5_-135468": {
			"name": "mesh_m1-PolyPaper5_-135468",
			"primitives": [
				{
					"attributes": {
						"POSITION": "accessor_position_m1-PolyPaper5_-135468",
						"NORMAL": "accessor_normal_m1-PolyPaper5_-135468",
						"COLOR": "accessor_color_m1-PolyPaper5_-135468"
					},
					"indices": "accessor_indices_0_m1-PolyPaper5_-135468",
					"material": "material_mat5",
					"mode": 4
				}
			]
		}
	},
	"shaders": {
		"vertex_mat25": {
			"type": 35633,
			"uri": "https://vr.google.com/shaders/w/gemVS.glsl"
		},
		"fragment_mat25": {
			"type": 35632,
			"uri": "https://vr.google.com/shaders/w/gemFS.glsl"
		},
		"vertex_mat5": {
			"type": 35633,
			"uri": "https://vr.google.com/shaders/w/vs.glsl"
		},
		"fragment_mat5": {
			"type": 35632,
			"uri": "https://vr.google.com/shaders/w/fs.glsl"
		}
	},
	"programs": {
		"program_mat25": {
			"attributes": [
				"a_position",
				"a_normal",
				"a_color"				
			],
			"vertexShader": "vertex_mat25",
			"fragmentShader": "fragment_mat25"
		},
		"program_mat5": {
			"attributes": [
				"a_position",
				"a_normal",
				"a_color"				
			],
			"vertexShader": "vertex_mat5",
			"fragmentShader": "fragment_mat5"
		}
	},
	"techniques": {
		"technique_mat25": {
			"program": "program_mat25",
			"extras": {"gvrss" : "https://vr.google.com/shaders/w/gvrss/gem.json"},
			"parameters": {
				"position": {
					"type": 35665,
					"semantic": "POSITION"
				},
				"normal": {
					"type": 35665,
					"semantic": "NORMAL"
				},
				"color": {
					"type": 35666,
					"semantic": "COLOR"
				},
				"modelViewMatrix": {
					"type": 35676,
					"semantic": "MODELVIEW"
				},
				"projectionMatrix": {
					"type": 35676,
					"semantic": "PROJECTION"
				},
				"normalMatrix": {
					"type": 35675,
					"semantic": "MODELVIEWINVERSETRANSPOSE"
				},
				"color": {
					"type": 35666
				},
				"roughness": {
					"type": 5126
				},
				"metallic": {
					"type": 5126
				},
				"gem": {
					"type": 35678
				},
				"light0Pos": {
					"type": 35666
				},
				"light0Color": {
					"type": 35666
				},
				"light1Pos": {
					"type": 35666
				},
				"light1Color": {
					"type": 35666
				}				
			},
			"attributes": {
				"a_position": "position",
				"a_normal": "normal",
				"a_color": "color"				
			},
			"uniforms": {
				"u_modelViewMatrix": "modelViewMatrix",
				"u_projectionMatrix": "projectionMatrix",
				"u_normalMatrix": "normalMatrix",
				"u_color": "color",
				"u_roughness": "roughness",
				"u_metallic": "metallic",
				"u_gem": "gem",
				"u_light0Pos": "light0Pos",
				"u_light0Color": "light0Color",
				"u_light1Pos": "light1Pos",
				"u_light1Color": "light1Color"				
			},
			"states": {
				"enable": [
					2929,
					2884
				],
				"functions": {
					"cullFace": [1029]
				}
			}
		},
		"technique_mat5": {
			"program": "program_mat5",
			"extras": {"gvrss" : "https://vr.google.com/shaders/w/gvrss/paper.json"},
			"parameters": {
				"position": {
					"type": 35665,
					"semantic": "POSITION"
				},
				"normal": {
					"type": 35665,
					"semantic": "NORMAL"
				},
				"color": {
					"type": 35666,
					"semantic": "COLOR"
				},
				"modelViewMatrix": {
					"type": 35676,
					"semantic": "MODELVIEW"
				},
				"projectionMatrix": {
					"type": 35676,
					"semantic": "PROJECTION"
				},
				"normalMatrix": {
					"type": 35675,
					"semantic": "MODELVIEWINVERSETRANSPOSE"
				},
				"color": {
					"type": 35666
				},
				"roughness": {
					"type": 5126
				},
				"metallic": {
					"type": 5126
				},
				"light0Pos": {
					"type": 35666
				},
				"light0Color": {
					"type": 35666
				},
				"light1Pos": {
					"type": 35666
				},
				"light1Color": {
					"type": 35666
				}				
			},
			"attributes": {
				"a_position": "position",
				"a_normal": "normal",
				"a_color": "color"				
			},
			"uniforms": {
				"u_modelViewMatrix": "modelViewMatrix",
				"u_projectionMatrix": "projectionMatrix",
				"u_normalMatrix": "normalMatrix",
				"u_color": "color",
				"u_roughness": "roughness",
				"u_metallic": "metallic",
				"u_light0Pos": "light0Pos",
				"u_light0Color": "light0Color",
				"u_light1Pos": "light1Pos",
				"u_light1Color": "light1Color"				
			},
			"states": {
				"enable": [
					2929,
					2884
				],
				"functions": {
					"cullFace": [1029]
				}
			}
		}
	},
	"samplers": {
		"sampler_LINEAR_LINEAR_REPEAT": {
			"magFilter": 9729,
			"minFilter": 9987,
			"wrapS": 10497,
			"wrapT": 10497
		}
	},
	"textures": {
		"texture_mat25_gem": {
			"format": 6408,
			"internalFormat": 6408,
			"sampler": "sampler_LINEAR_LINEAR_REPEAT",
			"source": "image_mat25_gem",
			"target": 3553,
			"type": 5121
		}
	},
	"images": {
		"image_mat25_gem": {
			"uri": "https://vr.google.com/shaders/w/GemRefractions.png"
		}
	},
	"materials": {
		"material_mat25": {
			"technique": "technique_mat25",
			"values": {
				"color": [1, 1, 1, 1],
				"roughness": 0.001,
				"metallic": 0,
				"gem": "texture_mat25_gem",
				"light0Pos": [-0.02, 4.11, -0.54, 0],
				"light0Color": [0.8, 0.8, 0.8, 0],
				"light1Pos": [0.02, -4.11, 0.54, 0],
				"light1Color": [0.64, 0.5647059, 0.5647059, 0]				
			},
			"name": "material_mat25"
		},
		"material_mat5": {
			"technique": "technique_mat5",
			"values": {
				"color": [0.01176471, 0.6078432, 0.8980392, 1],
				"roughness": 0.72,
				"metallic": 0,
				"light0Pos": [-0.02, 4.11, -0.54, 0],
				"light0Color": [0.8, 0.8, 0.8, 0],
				"light1Pos": [0.02, -4.11, 0.54, 0],
				"light1Color": [0.64, 0.5647059, 0.5647059, 0]				
			},
			"name": "material_mat5"
		}
	},
	"nodes": {
		"node_MeshObject-1098354688-PolyGem25": {
			"name": "node_MeshObject-1098354688-PolyGem25",
			"meshes": [
				"mesh_m0-PolyGem25_-136056"
			],
			"matrix": [1, 0, 0, 0, 0, 1, 0, 0, 0, 0, 1, 0, 0, 0, 0, 1]
		},
		"node_MeshObject1729475328-PolyPaper5": {
			"name": "node_MeshObject1729475328-PolyPaper5",
			"meshes": [
				"mesh_m1-PolyPaper5_-135468"
			],
			"matrix": [1, 0, 0, 0, 0, 1, 0, 0, 0, 0, 1, 0, 0, 0, 0, 1]
		}
	},
	"scene": "defaultScene",
	"scenes": {
		"defaultScene": {
			"nodes": [
				"node_MeshObject-1098354688-PolyGem25",
				"node_MeshObject1729475328-PolyPaper5"
			],
			"extras": {

			}
		}
	}
}